<?xml version="1.0" standalone="no"?>
<!DOCTYPE svg PUBLIC "-//W3C//DTD SVG 20010904//EN"
 "http://www.w3.org/TR/2001/REC-SVG-20010904/DTD/svg10.dtd">
<svg version="1.0" xmlns="http://www.w3.org/2000/svg"
 width="1200.000000pt" height="630.000000pt" viewBox="0 0 1200.000000 630.000000"
 preserveAspectRatio="xMidYMid meet">
<metadata>
Created by potrace 1.16, written by Peter Selinger 2001-2019
</metadata>
<g transform="translate(0.000000,630.000000) scale(0.100000,-0.100000)"
fill="#000000" stroke="none">
<path d="M0 3150 l0 -3150 6000 0 6000 0 0 3150 0 3150 -6000 0 -6000 0 0
-3150z m5008 808 l-3 -553 -62 -3 -63 -3 0 51 0 50 -37 -36 c-61 -59 -114 -78
-213 -78 -72 -1 -94 4 -145 27 -72 34 -97 56 -140 122 -40 63 -52 100 -65 198
-11 93 -1 188 31 274 31 81 123 173 199 198 121 41 250 13 333 -70 l37 -38 0
206 0 207 65 0 65 0 -2 -552z m2652 -3 l0 -555 -65 0 -65 0 0 555 0 555 65 0
65 0 0 -555z m-6620 275 l0 -270 270 0 270 0 0 -815 0 -815 -270 0 -270 0 0
-270 0 -270 -270 0 -270 0 0 275 0 275 270 0 270 0 0 805 0 805 -270 0 -270 0
0 275 0 275 270 0 270 0 0 -270z m1360 238 c526 -112 932 -524 1047 -1061 22
-104 25 -397 4 -502 -53 -275 -184 -520 -380 -715 -240 -238 -521 -365 -873
-396 l-78 -6 0 274 0 275 73 6 c315 28 598 252 692 548 53 168 54 332 4 496
-95 307 -377 536 -691 560 l-78 6 0 275 0 275 93 -7 c50 -4 135 -17 187 -28z
m3240 -264 c133 -51 224 -196 232 -369 l3 -60 -307 -3 c-237 -2 -308 -5 -308
-15 0 -23 27 -112 43 -143 24 -47 81 -91 139 -109 62 -18 72 -18 139 -4 61 13
132 77 144 128 7 31 7 31 71 31 44 0 64 -4 64 -12 0 -29 -61 -139 -94 -172
-156 -150 -450 -113 -568 73 -100 158 -88 406 26 546 97 117 275 164 416 109z
m1533 0 c65 -22 149 -101 182 -170 29 -61 55 -167 55 -226 l0 -38 -310 0 -310
0 6 -27 c18 -79 26 -102 53 -144 95 -150 334 -139 403 19 l19 42 60 0 61 0 -7
-32 c-20 -95 -98 -182 -194 -219 -67 -26 -193 -31 -261 -11 -152 45 -255 190
-267 377 -14 219 112 405 301 445 55 12 150 5 209 -16z m1079 15 c149 -32 251
-135 293 -296 50 -191 -35 -417 -186 -494 -201 -102 -428 -31 -524 164 -35 72
-57 176 -50 234 2 15 7 49 10 75 9 70 68 180 121 227 96 84 214 116 336 90z
m873 0 c76 -14 121 -37 172 -88 80 -81 118 -202 111 -356 -6 -113 -28 -187
-78 -260 -105 -153 -353 -179 -487 -52 l-33 31 0 -172 0 -172 -65 0 -65 0 0
530 0 530 65 0 65 0 0 -57 0 -58 29 35 c33 40 100 77 163 89 60 12 58 12 123
0z m891 -23 c129 -59 206 -191 216 -371 l3 -50 -309 -3 -309 -2 7 -42 c9 -57
41 -127 74 -161 47 -50 99 -71 177 -71 107 0 175 43 207 130 12 34 12 34 76
34 61 0 63 -1 57 -22 -64 -212 -272 -309 -491 -227 -143 54 -235 206 -235 390
0 211 104 364 281 414 73 20 178 12 246 -19z m738 18 c12 -5 16 -21 16 -68 l0
-63 -52 4 c-101 8 -205 -71 -228 -173 -5 -21 -10 -146 -10 -277 l0 -238 -62 3
-63 3 -3 403 -2 402 65 0 65 0 0 -65 0 -66 31 36 c63 72 185 121 243 99z m535
-10 c87 -26 156 -105 176 -202 l7 -33 -68 3 -68 3 -7 33 c-14 68 -82 112 -174
112 -100 0 -158 -41 -158 -111 0 -63 28 -84 153 -114 306 -74 345 -105 345
-272 0 -74 -3 -85 -30 -125 -97 -137 -403 -157 -541 -35 -41 36 -81 109 -90
166 l-7 41 66 0 66 0 11 -40 c12 -45 51 -95 89 -115 68 -35 218 -27 267 14 62
50 59 146 -6 184 -15 9 -86 30 -156 47 -155 37 -223 66 -256 111 -33 43 -39
67 -39 133 0 96 57 171 153 201 60 19 203 18 267 -1z m-5134 -321 c59 -181
107 -332 109 -337 1 -5 52 141 112 325 l110 334 67 3 c37 2 67 -1 67 -5 -1 -4
-65 -186 -143 -403 l-143 -395 -70 -3 -71 -3 -137 393 c-75 216 -136 399 -136
406 0 8 20 12 65 12 l64 0 106 -327z m-1705 -1043 l0 -80 -65 0 -65 0 0 80 0
80 65 0 65 0 0 -80z m2320 0 l0 -80 -65 0 -65 0 0 80 0 80 65 0 65 0 0 -80z
m-412 -103 l3 -127 74 0 75 0 0 -50 0 -50 -75 0 -75 0 0 -275 c0 -267 1 -276
21 -296 18 -18 29 -21 76 -16 l54 6 -3 -57 -3 -57 -70 -3 c-87 -4 -132 9 -170
48 l-30 31 -3 310 -3 309 -60 0 -59 0 0 50 0 50 60 0 60 0 0 124 0 125 53 4
c28 1 57 2 62 2 6 -1 11 -54 13 -128z m728 123 l44 0 0 -125 0 -125 75 0 75 0
0 -50 0 -50 -75 0 -75 0 0 -280 0 -280 25 -16 c19 -13 38 -15 76 -11 l50 6 -3
-57 -3 -57 -80 -3 c-95 -3 -145 15 -175 63 -19 30 -20 51 -20 334 l0 301 -60
0 -60 0 0 50 0 50 60 0 60 0 0 123 c0 68 3 127 7 131 4 3 13 4 21 1 7 -3 34
-5 58 -5z m1314 -126 l0 -124 80 0 80 0 0 -50 0 -50 -80 0 -81 0 3 -281 c3
-325 0 -315 96 -306 l53 6 -3 -57 -3 -57 -80 -3 c-90 -3 -134 13 -169 61 -20
27 -21 43 -24 333 l-3 304 -55 0 -54 0 0 50 0 50 55 0 55 0 0 124 c0 141 -4
135 88 127 l42 -3 0 -124z m-3263 -132 c50 -26 77 -53 106 -107 21 -38 22 -54
25 -362 l3 -323 -65 0 -66 0 0 293 c0 268 -2 296 -20 335 -24 53 -79 81 -158
82 -90 0 -154 -37 -195 -115 -21 -38 -22 -56 -25 -317 l-3 -278 -65 0 -64 0 0
400 0 400 65 0 65 0 0 -51 0 -51 51 46 c66 59 120 77 224 73 58 -3 92 -10 122
-25z m684 12 c104 -31 182 -116 191 -209 3 -29 1 -30 -41 -33 -70 -5 -88 3
-95 42 -16 82 -112 128 -226 106 -68 -13 -99 -42 -107 -98 -5 -37 -2 -45 26
-71 25 -23 52 -34 129 -51 223 -50 292 -82 327 -156 59 -125 8 -269 -117 -325
-47 -21 -68 -24 -178 -24 -135 0 -181 13 -257 71 -40 30 -81 108 -89 167 l-6
44 64 0 65 0 12 -45 c14 -55 64 -106 116 -121 62 -17 164 -13 211 8 64 29 90
100 59 160 -19 38 -59 55 -209 91 -141 33 -195 57 -237 103 -57 62 -60 185 -8
258 60 84 234 123 370 83z m3367 -24 c116 -62 175 -170 197 -357 l6 -53 -311
0 c-352 0 -323 9 -294 -90 44 -150 169 -220 317 -179 49 13 113 71 127 115
l12 34 64 0 c35 0 64 -2 64 -4 0 -18 -35 -95 -60 -131 -81 -117 -252 -165
-411 -115 -163 51 -259 200 -259 401 0 141 41 241 132 325 82 75 138 95 263
91 80 -3 97 -7 153 -37z m-4738 -380 l0 -400 -65 0 -65 0 0 400 0 400 65 0 65
0 0 -400z m2320 0 l0 -400 -65 0 -65 0 0 400 0 400 65 0 65 0 0 -400z m760
108 c0 -270 1 -295 20 -333 28 -59 69 -80 155 -80 84 0 125 20 170 84 l30 43
3 289 3 289 65 0 64 0 0 -400 0 -400 -65 0 -65 0 0 52 0 51 -37 -38 c-127
-128 -361 -103 -440 47 l-28 53 -3 318 -3 317 65 0 66 0 0 -292z"/>
<path d="M4545 4093 c-48 -25 -82 -62 -107 -117 -20 -45 -23 -66 -23 -176 1
-142 16 -190 77 -252 105 -104 297 -61 361 82 26 56 35 209 18 286 -27 121
-116 194 -235 194 -36 -1 -74 -7 -91 -17z"/>
<path d="M5402 4099 c-64 -32 -131 -134 -132 -201 l0 -28 235 0 235 0 -6 43
c-15 93 -64 164 -132 193 -52 21 -149 18 -200 -7z"/>
<path d="M6933 4096 c-56 -27 -91 -70 -118 -145 -30 -87 -46 -81 221 -81 l237
0 -7 43 c-12 73 -50 143 -95 173 -61 40 -166 45 -238 10z"/>
<path d="M8110 4111 c-78 -25 -127 -69 -162 -146 -20 -43 -23 -66 -23 -160 0
-94 3 -117 23 -160 57 -123 171 -177 296 -141 114 34 178 138 179 296 0 47 -5
104 -12 127 -17 63 -70 135 -119 161 -46 26 -139 37 -182 23z"/>
<path d="M8955 4096 c-106 -46 -166 -180 -151 -337 15 -161 84 -247 212 -264
106 -14 195 40 235 143 28 73 31 242 5 312 -43 115 -102 160 -208 160 -35 -1
-76 -7 -93 -14z"/>
<path d="M9763 4099 c-68 -34 -120 -109 -137 -196 l-5 -33 234 0 235 0 0 31
c0 83 -53 168 -124 200 -57 26 -149 25 -203 -2z"/>
<path d="M8937 2516 c-77 -28 -134 -100 -156 -195 l-9 -41 238 0 239 0 -6 38
c-9 60 -48 137 -84 165 -61 45 -149 58 -222 33z"/>
</g>
</svg>
